<?xml version="1.0" encoding="UTF-8"?>
<svg version="1.1" xmlns="http://www.w3.org/2000/svg" width="512" height="512">
<path d="M0 0 C1.50366163 1.26649874 3.00418683 2.53674128 4.5 3.8125 C5.510625 4.575625 6.52125 5.33875 7.5625 6.125 C22.45089137 19.74629423 33.0305595 39.01183169 44 55.75 C45.89222109 58.63198708 47.7852357 61.51345129 49.67851257 64.39474487 C50.90437845 66.26066658 52.12965826 68.12697347 53.35432434 69.99368286 C56.05321075 74.10477808 58.7590454 78.2104203 61.4987793 82.29443359 C62.18157959 83.31241783 62.18157959 83.31241783 62.87817383 84.35096741 C63.69901353 85.57196258 64.52194608 86.79155532 65.34765625 88.00926208 C79.72964622 109.38654527 84.08654096 133.99532983 79.4375 159.375 C75.58202097 173.95409047 68.37592245 187.48162994 61.5 200.8125 C62.20125 201.32039062 62.9025 201.82828125 63.625 202.3515625 C65.60148414 203.78558768 67.57529965 205.2232959 69.546875 206.6640625 C71.276627 207.92247996 73.01322368 209.17175658 74.765625 210.3984375 C82.71762136 216.06501758 88.31965956 223.67089369 93.9375 231.5625 C94.50388184 232.35253418 95.07026367 233.14256836 95.65380859 233.95654297 C99.37578298 239.17113433 102.98767076 244.44753666 106.5078125 249.80078125 C113.23518367 259.97098354 120.27829057 269.93435762 127.25 279.9375 C134.51685852 290.36562773 141.68626589 300.85786072 148.83496094 311.3671875 C154.98734956 320.40271894 161.20342923 329.39295304 167.45849609 338.35766602 C178.39427012 354.0405659 178.39427012 354.0405659 183.3125 361.3125 C183.70252197 361.8804126 184.09254395 362.4483252 184.49438477 363.03344727 C192.11486552 374.40344403 193.40432464 387.75718073 190.88671875 401.05078125 C187.58148665 411.11208248 180.79605262 420.57144964 171.5 425.8125 C159.45461151 431.78636159 148.5885945 431.95675109 135.40625 431.91015625 C133.84826707 431.90828842 132.29028354 431.90686624 130.7322998 431.90586853 C126.65529729 431.90207208 122.57833107 431.8922667 118.50134277 431.88116455 C114.33162934 431.87088831 110.16190998 431.86635766 105.9921875 431.86132812 C97.82810845 431.85064154 89.66405875 431.83360009 81.5 431.8125 C81.51047363 432.81627686 81.52094727 433.82005371 81.53173828 434.85424805 C81.56803453 438.59086518 81.5909354 442.32746683 81.60986328 446.06420898 C81.61989896 447.67914453 81.63353051 449.294062 81.65087891 450.90893555 C81.67523465 453.23490875 81.68650747 455.56064095 81.6953125 457.88671875 C81.70563507 458.60462082 81.71595764 459.32252289 81.72659302 460.06217957 C81.72766693 464.89870812 81.26849055 468.57630435 78.22417349 472.42573887 C75.95308144 474.25238926 74.63362468 474.18932453 71.73793125 474.19281673 C70.75210735 474.20125668 69.76628345 474.20969662 68.75058609 474.21839231 C67.66480568 474.21238227 66.57902526 474.20637222 65.46034241 474.20018005 C64.30903963 474.20556559 63.15773685 474.21095113 61.97154611 474.21649987 C58.77069328 474.22835802 55.57017234 474.22669534 52.36931622 474.21933305 C48.91933761 474.2146152 45.4694156 474.22709894 42.01945496 474.23735046 C35.25866915 474.25457115 28.49797615 474.25537172 21.7371741 474.25013756 C16.24337194 474.24610064 10.74959727 474.24753371 5.25579643 474.25288582 C4.47470592 474.25363424 3.69361542 474.25438266 2.8888555 474.25515376 C1.30220902 474.2566852 -0.28443746 474.25822354 -1.87108392 474.25976873 C-16.75983586 474.27350564 -31.6485353 474.26804777 -46.53728605 474.25658352 C-60.16588306 474.24665016 -73.79434433 474.25959143 -87.4229204 474.28351771 C-101.40808231 474.30788551 -115.39318094 474.31752229 -129.37836367 474.31086498 C-137.2334577 474.30736755 -145.0884473 474.30963922 -152.94352531 474.32711601 C-159.63054913 474.34180908 -166.31739499 474.3425116 -173.00441521 474.3250451 C-176.41761721 474.31650856 -179.83050094 474.3144495 -183.24368668 474.32969666 C-186.94054843 474.34280046 -190.63653552 474.3314523 -194.33335876 474.31370544 C-195.41690846 474.32331045 -196.50045815 474.33291546 -197.61684269 474.34281152 C-204.86750689 474.27081856 -204.86750689 474.27081856 -208.15142155 471.89122105 C-211.00535195 467.4921257 -210.63413854 463.09531201 -210.59765625 457.984375 C-210.5962413 457.23536926 -210.59482635 456.48636353 -210.59336853 455.71466064 C-210.58778659 453.33056588 -210.57523745 450.94656622 -210.5625 448.5625 C-210.55748266 446.94270969 -210.55292016 445.32291791 -210.54882812 443.703125 C-210.53782308 439.73954688 -210.52057091 435.77603955 -210.5 431.8125 C-211.36728729 431.81694122 -212.23457458 431.82138245 -213.12814331 431.82595825 C-221.33662453 431.86617846 -229.54507224 431.89655698 -237.75362968 431.91612434 C-241.97284047 431.92652257 -246.19196922 431.94060865 -250.41113281 431.96337891 C-254.48953167 431.98524953 -258.56785206 431.99709835 -262.64630508 432.00225449 C-264.19547891 432.00592489 -265.74464886 432.01309163 -267.29378891 432.02396011 C-281.98531098 432.12285171 -294.63226014 430.68955974 -306.8125 421.5625 C-317.01291231 411.12486879 -321.16477769 400.29383763 -321.04101562 385.87133789 C-320.42314105 369.9815583 -309.68723187 357.35812105 -300.875 344.8125 C-299.46164773 342.79077821 -298.04889594 340.76863651 -296.63671875 338.74609375 C-295.93981934 337.74819824 -295.24291992 336.75030273 -294.52490234 335.72216797 C-291.55575362 331.45567236 -288.61796204 327.16812689 -285.6875 322.875 C-285.15962891 322.1018042 -284.63175781 321.3286084 -284.08789062 320.53198242 C-283.05541316 319.01942865 -282.02302157 317.50681626 -280.99072266 315.99414062 C-278.62572017 312.53301023 -276.25093322 309.07863249 -273.875 305.625 C-273.42858154 304.9760376 -272.98216309 304.3270752 -272.5222168 303.65844727 C-271.62912862 302.36031055 -270.73598109 301.06221467 -269.84277344 299.76416016 C-268.02137503 297.11684037 -266.20094917 294.46885259 -264.38061523 291.82080078 C-263.45836256 290.47925339 -262.53599883 289.13778233 -261.61352539 287.79638672 C-259.38232419 284.55179087 -257.15239463 281.30634001 -254.92578125 278.05859375 C-248.79583343 269.12216379 -242.62152652 260.21724916 -236.41894531 251.33105469 C-233.3653817 246.95238718 -230.32237716 242.56942848 -227.34765625 238.13671875 C-222.21165264 230.49421184 -216.93595535 223.44628184 -210.5 216.8125 C-209.71625 215.94625 -208.9325 215.08 -208.125 214.1875 C-203.87505118 210.34230821 -199.16290979 207.13421517 -194.5 203.8125 C-193.16484308 202.81493607 -191.83118508 201.81535795 -190.5 200.8125 C-190.80703857 200.2141333 -191.11407715 199.6157666 -191.43041992 198.99926758 C-203.48771167 175.42131848 -203.48771167 175.42131848 -206.5 165.8125 C-206.81582031 164.81734375 -207.13164062 163.8221875 -207.45703125 162.796875 C-213.76256724 138.95676631 -209.50089199 114.27880498 -197.328125 93.23828125 C-193.63163132 86.93764745 -189.64744778 80.86629382 -185.5625 74.8125 C-184.39498188 73.07504147 -183.22855712 71.33685216 -182.06219482 69.59861755 C-181.22835526 68.3561111 -180.39407727 67.11389877 -179.55938721 65.8719635 C-176.10658624 60.73045761 -172.68554711 55.56834066 -169.26953125 50.40234375 C-167.66524022 47.98046477 -166.06048095 45.55889678 -164.45553589 43.13745117 C-163.41340388 41.56327668 -162.37277985 39.9881027 -161.33377075 38.41186523 C-142.10081584 9.24568818 -120.48716083 -12.20270011 -85.5 -20.1875 C-55.65291261 -25.90533283 -23.81917467 -18.8775847 0 0 Z " fill="#000000" transform="translate(320.5,30.1875)"/>
<path d="M0 0 C84.48 0 168.96 0 256 0 C256 56.43 256 112.86 256 171 C171.52 171 87.04 171 0 171 C0 114.57 0 58.14 0 0 Z " fill="#D1D6D5" transform="translate(128,316)"/>
<path d="M0 0 C0.00586624 0.92548645 0.01173248 1.8509729 0.01777649 2.80450439 C0.07593587 11.5717541 0.14814382 20.33875532 0.23571491 29.10576248 C0.28024043 33.6118309 0.31953463 38.1178126 0.34643555 42.62402344 C0.37264782 46.98141163 0.41317347 51.33846288 0.46318626 55.69564056 C0.47973481 57.34916712 0.49132322 59.00275179 0.49761391 60.65634918 C0.56276965 76.2242965 2.30520436 89.53432313 13 101.6875 C20.024927 108.34852313 30.79001846 113.07765124 40.3605957 113.20874023 C42.33459099 113.23767616 42.33459099 113.23767616 44.34846497 113.26719666 C45.79089361 113.28201541 47.23333334 113.29578701 48.67578125 113.30859375 C49.77076463 113.31845149 49.77076463 113.31845149 50.88786888 113.32850838 C54.76189612 113.36110952 58.63589605 113.38554297 62.51000977 113.4050293 C65.69239364 113.42273751 68.87387374 113.45738321 72.0559082 113.50756836 C75.91744862 113.56838385 79.77816129 113.59858935 83.6401577 113.60820198 C85.09958725 113.61666513 86.55900026 113.63525171 88.01815224 113.6649456 C101.05523139 113.91567888 111.28977843 111.18907784 121.5 102.75 C129.29427948 95.13489936 135.23346494 85.01821243 135.4367218 73.92773438 C135.43528671 73.2084375 135.43385162 72.48914063 135.43237305 71.74804688 C135.4425647 70.96659302 135.45275635 70.18513916 135.46325684 69.38000488 C135.49317763 66.82617835 135.50262035 64.27272814 135.51171875 61.71875 C135.52858101 59.93655166 135.54673332 58.15436509 135.56611633 56.37219238 C135.61345462 51.70340659 135.64336831 47.03466859 135.66955566 42.36572266 C135.69944311 37.59267748 135.74594519 32.81979668 135.79101562 28.046875 C135.87686458 18.69800294 135.94429141 9.34909688 136 0 C142.28304773 1.96347429 148.25710733 4.32173293 154.2421875 7.0546875 C155.09120636 7.4381131 155.94022522 7.8215387 156.81497192 8.21658325 C159.50353869 9.43192892 162.18929504 10.65334534 164.875 11.875 C166.66778617 12.68660134 168.46075358 13.49780247 170.25390625 14.30859375 C175.17174557 16.53363072 180.08633457 18.76576391 185 21 C186.23598144 21.56157003 187.47198184 22.1230983 188.70800781 22.68457031 C191.13894409 23.78911677 193.56965452 24.89415439 196 26 C195.91059681 28.08401908 195.80245785 30.16723425 195.6875 32.25 C195.62949219 33.41015625 195.57148438 34.5703125 195.51171875 35.765625 C194.59006086 45.39397387 191.41302585 54.07178575 187.109375 62.65234375 C186.59880554 63.69317612 186.08823608 64.73400848 185.56219482 65.80638123 C184.06517231 68.84739204 182.55631405 71.88197283 181.04129028 74.91402435 C179.93093282 77.13835956 178.82435313 79.36454471 177.71850586 81.59112549 C171.58981334 93.92874557 165.42216947 106.24655445 159.25 118.5625 C152.8975 131.246875 146.545 143.93125 140 157 C92.48 157 44.96 157 -4 157 C-12.1675 140.7475 -20.335 124.495 -28.75 107.75 C-32.61090332 100.08281738 -32.61090332 100.08281738 -36.54980469 92.26074219 C-39.70556641 85.96728516 -39.70556641 85.96728516 -41.18536377 83.01104736 C-42.21056197 80.96675459 -43.23891249 78.9240407 -44.26983643 76.88262939 C-45.83950808 73.77283299 -47.39879755 70.65801993 -48.95605469 67.54199219 C-49.41008038 66.64833324 -49.86410606 65.7546743 -50.33189011 64.83393478 C-56.50811963 52.40146627 -60.4284243 39.90718426 -60 26 C-49.03075116 20.83441994 -38.00153346 15.8085535 -26.94335938 10.83642578 C-24.21140433 9.60764034 -21.48067616 8.37615567 -18.75 7.14453125 C-17.00528087 6.35921382 -15.26049188 5.5740516 -13.515625 4.7890625 C-12.7032135 4.42245514 -11.890802 4.05584778 -11.05377197 3.6781311 C-10.30158386 3.34042694 -9.54939575 3.00272278 -8.77441406 2.65478516 C-8.11572327 2.35835114 -7.45703247 2.06191711 -6.77838135 1.75650024 C-4.48567839 0.78121429 -2.51236968 0 0 0 Z " fill="#395464" transform="translate(188,142)"/>
<path d="M0 0 C3.50760741 2.84328782 6.81891103 5.79572525 10 9 C10.61866943 9.6202002 11.23733887 10.24040039 11.87475586 10.87939453 C19.48349077 18.88451625 25.28366114 28.03902496 31.3125 37.25 C32.4573393 38.98739215 33.60293787 40.72428421 34.74926758 42.46069336 C36.48822026 45.095255 38.22643516 47.73027518 39.96128845 50.36753845 C43.5696369 55.85027025 47.21552467 61.30539919 50.8984375 66.73828125 C51.80571821 68.08096312 52.712867 69.42373414 53.61987305 70.76660156 C54.87880922 72.63035172 56.13965694 74.49254639 57.40933228 76.34899902 C72 97.6991405 72 97.6991405 72 104 C68.58239124 103.40947408 65.63889726 102.54554592 62.47607422 101.12988281 C61.17849686 100.55358124 61.17849686 100.55358124 59.85470581 99.96563721 C58.46869675 99.34069366 58.46869675 99.34069366 57.0546875 98.703125 C56.08902863 98.27247742 55.12336975 97.84182983 54.12844849 97.39813232 C51.04180469 96.02019802 47.95840201 94.63517091 44.875 93.25 C42.82312241 92.33287289 40.77104111 91.41620139 38.71875 90.5 C34.9113625 88.79864183 31.10478349 87.09552255 27.30029297 85.38769531 C26.47506543 85.02246545 25.64983789 84.65723558 24.79960346 84.28093815 C23.01445535 83.46415665 21.24631493 82.60832737 19.50436115 81.70307446 C12.48213912 78.15977766 6.62637541 77.22149029 -1.18041992 77.14672852 C-2.3467244 77.11708511 -3.51302887 77.08744171 -4.7146759 77.05690002 C-8.55335085 76.96901478 -12.39102144 76.91993628 -16.23046875 76.87890625 C-17.57399828 76.86123764 -18.91752264 76.84317193 -20.26104164 76.82472038 C-26.60311821 76.74028769 -32.94489667 76.67832159 -39.28745097 76.64548069 C-45.77849106 76.61136598 -52.26450196 76.52996356 -58.75366211 76.36743164 C-92.28680433 75.54526008 -120.98746126 76.39723148 -150.82070923 93.67550659 C-155.37590045 96.27485124 -160.09005623 98.45848156 -164.87963867 100.58813477 C-166.0312585 101.10596354 -166.0312585 101.10596354 -167.20614338 101.6342535 C-172.61371274 104 -172.61371274 104 -176 104 C-174.50565664 98.32149524 -172.30615352 93.498823 -169.265625 88.4921875 C-168.87844803 87.85138748 -168.49127106 87.21058746 -168.09236145 86.55036926 C-162.27914529 77.05443977 -155.94634525 67.89225111 -149.6875 58.6875 C-147.80903459 55.91732873 -145.93170347 53.14639178 -144.05461121 50.37528992 C-142.82424381 48.55925974 -141.59322249 46.74367242 -140.36152649 44.92854309 C-135.83797494 38.25722373 -131.35751402 31.55816744 -126.92021179 24.82914734 C-116.87769022 9.66950879 -105.02170393 -0.57661314 -89 -9 C-88.24332031 -9.41121094 -87.48664063 -9.82242188 -86.70703125 -10.24609375 C-59.04150964 -23.99858708 -24.15150591 -17.96362008 0 0 Z " fill="#2175BA" transform="translate(308,43)"/>
<path d="M0 0 C10.99248899 1.73690843 20.11247262 12.94233675 26.2890625 21.42578125 C29.32433751 25.70051694 32.28239065 30.02619278 35.21972656 34.36865234 C36.93585921 36.90519618 38.66447089 39.43265395 40.3984375 41.95703125 C42.57398174 45.12554252 44.74478898 48.29718103 46.91015625 51.47265625 C49.80540384 55.71763596 52.71249495 59.95434699 55.625 64.1875 C56.07125732 64.8362207 56.51751465 65.48494141 56.97729492 66.15332031 C57.87054234 67.45170359 58.7638526 68.75004364 59.65722656 70.04833984 C61.47862497 72.69565963 63.29905083 75.34364741 65.11938477 77.99169922 C66.04163744 79.33324661 66.96400117 80.67471767 67.88647461 82.01611328 C70.11767581 85.26070913 72.34760537 88.50615999 74.57421875 91.75390625 C75.44521597 93.02350373 76.31631074 94.29303429 77.1875 95.5625 C77.6203833 96.19357666 78.0532666 96.82465332 78.49926758 97.47485352 C81.39745114 101.69174917 84.31840222 105.89219608 87.25 110.0859375 C87.98323486 111.13579834 88.71646973 112.18565918 89.47192383 113.26733398 C90.93586696 115.36202286 92.4018146 117.45531241 93.86987305 119.54711914 C94.53543213 120.49965576 95.20099121 121.45219238 95.88671875 122.43359375 C96.48701904 123.29009521 97.08731934 124.14659668 97.70581055 125.02905273 C99 127 99 127 99 128 C75.9 128 52.8 128 29 128 C28.94392578 120.25595703 28.94392578 120.25595703 28.88671875 112.35546875 C28.85644826 109.087857 28.82530658 105.82030035 28.79101562 102.55273438 C28.73665216 97.3645298 28.68554413 92.17643422 28.65356445 86.98803711 C28.62758445 82.80573993 28.5872203 78.62380785 28.53681374 74.44173622 C28.52010897 72.84496916 28.50861721 71.2481389 28.50238609 69.65129662 C28.49278383 67.41712402 28.46477338 65.18389309 28.43237305 62.94995117 C28.41571846 61.04133553 28.41571846 61.04133553 28.39872742 59.09416199 C28.25355799 56.0423577 28.25355799 56.0423577 26.66047668 54.12812805 C23.62986636 52.06913104 20.89558845 51.86131131 17.3449707 51.79467773 C16.40422195 51.77473251 15.46347321 51.75478729 14.49421692 51.73423767 C13.48163315 51.71752518 12.46904938 51.70081268 11.42578125 51.68359375 C10.38681198 51.66281265 9.34784271 51.64203156 8.27738953 51.62062073 C4.95582747 51.55519344 1.63418584 51.49627179 -1.6875 51.4375 C-3.9381593 51.39430831 -6.18881052 51.35069381 -8.43945312 51.30664062 C-13.9595511 51.19951902 -19.47972837 51.09773984 -25 51 C-23.32990495 45.27150889 -20.70169928 40.13184788 -18.02734375 34.82421875 C-17.54423233 33.85845413 -17.06112091 32.89268951 -16.56336975 31.8976593 C-15.54568958 29.86531086 -14.52607262 27.83393123 -13.50463867 25.8034668 C-11.93530215 22.68312999 -10.37245465 19.55960773 -8.81054688 16.43554688 C-7.82069104 14.46074771 -6.83046951 12.4861318 -5.83984375 10.51171875 C-5.370056 9.57325607 -4.90026825 8.6347934 -4.41624451 7.66789246 C-3.98231888 6.80642105 -3.54839325 5.94494965 -3.10131836 5.05737305 C-2.71874374 4.29603561 -2.33616913 3.53469818 -1.94200134 2.75028992 C-1 1 -1 1 0 0 Z " fill="#0E5483" transform="translate(372,248)"/>
<path d="M0 0 C2.84635887 1.16396096 3.34645889 2.58899271 4.69781494 5.32249451 C5.17801086 6.27695969 5.65820679 7.23142487 6.1529541 8.21481323 C6.65727966 9.25331924 7.16160522 10.29182526 7.68121338 11.36180115 C8.20825867 12.42105301 8.73530396 13.48030487 9.27832031 14.57165527 C10.39082513 16.81382529 11.49662879 19.05933075 12.59625244 21.30784607 C14.28506418 24.76066303 15.99288899 28.20351634 17.70465088 31.64500427 C18.78129268 33.82088226 19.85685063 35.99729695 20.93121338 38.17430115 C21.44363586 39.21078293 21.95605835 40.24726471 22.48400879 41.31515503 C22.95159607 42.27277237 23.41918335 43.23038971 23.90093994 44.21702576 C24.31523254 45.06228317 24.72952515 45.90754059 25.15637207 46.77841187 C26.04058838 48.8344574 26.04058838 48.8344574 26.04058838 50.8344574 C25.46287186 50.84032364 24.88515533 50.84618988 24.28993225 50.85223389 C18.27119375 50.91622094 12.25298733 51.00065433 6.23468018 51.09690857 C3.98930888 51.13014091 1.74385438 51.15817809 -0.50164795 51.18089294 C-3.73141905 51.21446942 -6.96042889 51.26678813 -10.18988037 51.32273865 C-11.19214157 51.32912857 -12.19440277 51.33551849 -13.22703552 51.34210205 C-18.77060872 51.45876231 -22.8342 51.70924578 -26.95941162 55.8344574 C-27.08352745 58.07303096 -27.13744185 60.31551224 -27.16473389 62.55735779 C-27.17463348 63.25976089 -27.18453308 63.962164 -27.19473267 64.68585205 C-27.22643284 67.01790444 -27.2511385 69.34997724 -27.27581787 71.68211365 C-27.29638006 73.29494774 -27.31737633 74.90777636 -27.33879089 76.52059937 C-27.39408754 80.77355015 -27.44346318 85.02655017 -27.49163818 89.27958679 C-27.55061098 94.37823647 -27.61688054 99.47679582 -27.68193817 104.57537079 C-27.78004317 112.32834467 -27.86883373 120.08137545 -27.95941162 127.8344574 C-51.05941162 127.8344574 -74.15941162 127.8344574 -97.95941162 127.8344574 C-93.2527037 120.43820209 -88.49375362 113.18454723 -83.45941162 106.0219574 C-77.97435174 98.17873852 -72.52969891 90.3107425 -67.14691162 82.3969574 C-66.52163574 81.47801697 -65.89635986 80.55907654 -65.25213623 79.61228943 C-64.0428246 77.83483946 -62.83359296 76.05733507 -61.62445068 74.2797699 C-53.46162872 62.29167243 -45.19706462 50.37349384 -36.89300537 38.4828949 C-34.44796071 34.98083771 -32.02203951 31.46739879 -29.61956787 27.9360199 C-9.92640399 -0.83864091 -9.92640399 -0.83864091 0 0 Z " fill="#0E5483" transform="translate(138.95941162109375,248.16554260253906)"/>
<path d="M0 0 C1.08667969 0.50660156 1.08667969 0.50660156 2.1953125 1.0234375 C12.36991821 5.71732227 21.53463128 9.35084795 32.85546875 6.20703125 C36.42212296 4.79871544 39.68743487 3.18232966 43 1.25 C47.45831838 -0.60763266 51.24610925 -0.84985756 56 0 C59.24675021 1.34348285 62.26860275 2.87812528 65.3359375 4.58984375 C71.49625425 7.85065658 78.16887276 7.69520321 85 7 C89.19536384 5.68649824 93.05151686 3.91617564 97 2 C98.66360237 1.32572307 100.32986221 0.65792248 102 0 C102.12478566 4.65892053 102.21488741 9.31684181 102.2746582 13.97705078 C102.29960626 15.55795259 102.33357805 17.13874142 102.37719727 18.71923828 C102.66024961 29.24878563 102.58830294 37.93667392 95.03833008 46.12841797 C86.82197551 54.15944123 78.08817581 54.45083487 67.12109375 54.3984375 C65.78166038 54.40046268 64.44222809 54.40337781 63.10279846 54.40713501 C60.30808927 54.41153601 57.51366946 54.40519887 54.71899414 54.39111328 C51.15264879 54.37400558 47.58698015 54.38388603 44.02065945 54.40183067 C41.25896686 54.41271501 38.49743251 54.40920132 35.73573494 54.4014473 C33.78658224 54.39849875 31.83742316 54.40754205 29.88829041 54.4168396 C20.03744271 54.33888065 14.1537504 52.68794368 6.796875 45.97265625 C1.39088497 40.03781937 -0.15484223 33.31450326 -0.09765625 25.48828125 C-0.0962413 24.76005661 -0.09482635 24.03183197 -0.09336853 23.28153992 C-0.08777659 20.95848461 -0.07522562 18.63552612 -0.0625 16.3125 C-0.05748396 14.73632952 -0.05292123 13.16015752 -0.04882812 11.58398438 C-0.0378098 7.72261902 -0.02055074 3.86132592 0 0 Z " fill="#F6BF9B" transform="translate(205,185)"/>
<path d="M0 0 C0.72278641 -0.00043808 1.44557281 -0.00087616 2.19026184 -0.00132751 C4.55494172 0.00074542 6.91889284 0.0240042 9.28344727 0.04760742 C10.93253695 0.05320873 12.58163167 0.0574763 14.23072815 0.06047058 C18.55282586 0.07187731 22.87461695 0.1013081 27.19659424 0.13458252 C32.39205337 0.17079572 37.58761553 0.18446445 42.78316498 0.20194244 C50.65977384 0.23094837 58.53571108 0.2884641 66.41235352 0.34057617 C66.41235352 17.17057617 66.41235352 34.00057617 66.41235352 51.34057617 C48.01577963 51.50101141 48.01577963 51.50101141 40.14282227 51.53588867 C34.78149478 51.55975238 29.4204419 51.58791015 24.05932617 51.64233398 C19.73452759 51.68596023 15.41002371 51.70974857 11.08502197 51.72008514 C9.43926356 51.72744653 7.79352033 51.74182152 6.14788818 51.7634964 C-3.91696905 51.89072793 -11.33644483 51.87570487 -19.33764648 44.96557617 C-25.20463976 38.12075069 -28.16521815 32.27503169 -27.95874023 23.25073242 C-26.95586051 15.38604406 -22.74594783 9.83728883 -16.84545898 4.81323242 C-11.21011922 1.13758694 -6.71771369 -0.03444981 0 0 Z " fill="#0E5483" transform="translate(44.587646484375,392.659423828125)"/>
<path d="M0 0 C18.06679034 -0.20054405 18.06679034 -0.20054405 25.81640625 -0.24414062 C31.08766095 -0.27393623 36.35847805 -0.30903886 41.62939453 -0.37719727 C45.88289789 -0.43185014 50.13593146 -0.46148994 54.38975906 -0.47438622 C56.00598157 -0.48356685 57.62218073 -0.50149374 59.23820114 -0.52865028 C69.47438844 -0.6936964 78.22717565 -0.36501355 86.12606812 6.97587585 C91.27920777 12.3784814 94.08782907 17.78773847 94.5 25.3125 C94.28637961 32.70783434 91.2665694 38.25625809 86.625 43.875 C80.36429883 48.94318666 74.96481863 51.12727473 66.86645508 51.11352539 C66.14425278 51.11367142 65.42205048 51.11381744 64.67796326 51.1139679 C62.29178866 51.11327145 59.90569221 51.1054916 57.51953125 51.09765625 C55.8647211 51.09579112 54.20991039 51.09436766 52.55509949 51.09336853 C48.20018997 51.08955085 43.84531382 51.07972695 39.49041748 51.06866455 C34.26496317 51.05663558 29.0394977 51.05204462 23.81403351 51.04621124 C15.87599914 51.03651481 7.93803797 51.01735301 0 51 C0 34.17 0 17.34 0 0 Z " fill="#0E5483" transform="translate(401,393)"/>
<path d="M0 0 C33.66 0 67.32 0 102 0 C102 9.57 102 19.14 102 29 C99.628125 30.27875 97.25625 31.5575 94.8125 32.875 C93.70612183 33.47417236 93.70612183 33.47417236 92.57739258 34.08544922 C85.28563805 37.99473558 80.29528045 40.00856996 72 38 C69.91584054 37.02414842 67.85401016 35.99968794 65.8125 34.9375 C57.24005407 30.72718417 48.13681532 30.46855452 39 33.25 C36.28028089 34.31246971 33.90491917 35.63639309 31.4375 37.1875 C27.42186585 39.30483437 24.40965311 39.65727814 20 39 C16.53788197 37.80180367 13.3242232 36.22232671 10.0625 34.5625 C9.20076172 34.14162109 8.33902344 33.72074219 7.45117188 33.28710938 C1.21639655 30.21639655 1.21639655 30.21639655 0 29 C0 19.43 0 9.86 0 0 Z " fill="#765F4E" transform="translate(205,137)"/>
</svg>
